<svg fill="none" xmlns="http://www.w3.org/2000/svg" viewBox="0 0 49 43"><path d="M48.98 5.206a21.15 21.15 0 0 1-5.02 5.54 32.651 32.651 0 0 1-1.146 10.004 31.715 31.715 0 0 1-3.59 8.256 32.04 32.04 0 0 1-5.752 6.987c-2.225 2.029-4.9 3.647-8.024 4.853-3.124 1.207-6.472 1.81-10.045 1.81-5.575 0-10.71-1.607-15.403-4.821.833.099 1.632.148 2.397.148 4.658 0 8.818-1.532 12.48-4.595-2.171-.043-4.116-.757-5.834-2.142-1.719-1.385-2.901-3.155-3.548-5.31.64.13 1.27.195 1.893.195.896 0 1.778-.124 2.645-.374-2.318-.496-4.24-1.728-5.768-3.698-1.528-1.97-2.292-4.242-2.292-6.82v-.132a9.433 9.433 0 0 0 4.553 1.342c-1.373-.977-2.462-2.252-3.266-3.823-.804-1.572-1.206-3.272-1.206-5.102a11.1 11.1 0 0 1 1.358-5.392c2.52 3.303 5.575 5.942 9.162 7.919a26.555 26.555 0 0 0 11.547 3.293 11.132 11.132 0 0 1-.263-2.442c0-2.961.98-5.49 2.944-7.585 1.962-2.095 4.33-3.143 7.103-3.143 2.903 0 5.349 1.129 7.337 3.386A19.26 19.26 0 0 0 47.62.954c-.764 2.566-2.235 4.545-4.414 5.938a19.107 19.107 0 0 0 5.773-1.686Z" fill="url(#paint0_linear_340_201)"/><defs><linearGradient id="paint0_linear_340_201" x1="133.869" y1="-39.122" x2="147.642" y2="-.755" gradientUnits="userSpaceOnUse"><stop offset=".001" stop-color="#98C83C"/><stop offset="1" stop-color="#567222"/></linearGradient></defs></svg>